<mxfile host="app.diagrams.net" modified="2023-11-11T09:39:45.970Z" agent="Mozilla/5.0 (Windows NT 10.0; Win64; x64) AppleWebKit/537.36 (KHTML, like Gecko) Chrome/116.0.5845.837 YaBrowser/23.9.4.837 Yowser/2.5 Safari/537.36" etag="T6TTfdBnvFVfMV09Lop1" version="22.1.0" type="device">
  <diagram name="Страница — 1" id="J15yoGxph1iZ6SuFbTM3">
    <mxGraphModel dx="910" dy="507" grid="1" gridSize="10" guides="1" tooltips="1" connect="1" arrows="1" fold="1" page="1" pageScale="1" pageWidth="827" pageHeight="1169" math="0" shadow="0">
      <root>
        <mxCell id="0" />
        <mxCell id="1" parent="0" />
        <mxCell id="CHvxEzsWI9L_6CAv82Uk-5" value="" style="shape=umlLifeline;perimeter=lifelinePerimeter;whiteSpace=wrap;html=1;container=1;dropTarget=0;collapsible=0;recursiveResize=0;outlineConnect=0;portConstraint=eastwest;newEdgeStyle={&quot;curved&quot;:0,&quot;rounded&quot;:0};participant=umlActor;" parent="1" vertex="1">
          <mxGeometry x="150" y="40" width="20" height="640" as="geometry" />
        </mxCell>
        <mxCell id="CHvxEzsWI9L_6CAv82Uk-7" value="Пассажир" style="text;html=1;strokeColor=none;fillColor=none;align=center;verticalAlign=middle;whiteSpace=wrap;rounded=0;" parent="1" vertex="1">
          <mxGeometry x="130" y="10" width="60" height="30" as="geometry" />
        </mxCell>
        <mxCell id="CHvxEzsWI9L_6CAv82Uk-10" value="OrderService" style="shape=umlLifeline;perimeter=lifelinePerimeter;whiteSpace=wrap;html=1;container=1;dropTarget=0;collapsible=0;recursiveResize=0;outlineConnect=0;portConstraint=eastwest;newEdgeStyle={&quot;curved&quot;:0,&quot;rounded&quot;:0};" parent="1" vertex="1">
          <mxGeometry x="280" y="40" width="100" height="640" as="geometry" />
        </mxCell>
        <mxCell id="CHvxEzsWI9L_6CAv82Uk-21" value="" style="html=1;points=[[0,0,0,0,5],[0,1,0,0,-5],[1,0,0,0,5],[1,1,0,0,-5]];perimeter=orthogonalPerimeter;outlineConnect=0;targetShapes=umlLifeline;portConstraint=eastwest;newEdgeStyle={&quot;curved&quot;:0,&quot;rounded&quot;:0};" parent="CHvxEzsWI9L_6CAv82Uk-10" vertex="1">
          <mxGeometry x="45" y="60" width="10" height="80" as="geometry" />
        </mxCell>
        <mxCell id="CHvxEzsWI9L_6CAv82Uk-22" value="" style="html=1;points=[[0,0,0,0,5],[0,1,0,0,-5],[1,0,0,0,5],[1,1,0,0,-5]];perimeter=orthogonalPerimeter;outlineConnect=0;targetShapes=umlLifeline;portConstraint=eastwest;newEdgeStyle={&quot;curved&quot;:0,&quot;rounded&quot;:0};" parent="CHvxEzsWI9L_6CAv82Uk-10" vertex="1">
          <mxGeometry x="45" y="200" width="10" height="160" as="geometry" />
        </mxCell>
        <mxCell id="rPxVZgnXgTAf76An14d8-15" value="" style="html=1;points=[[0,0,0,0,5],[0,1,0,0,-5],[1,0,0,0,5],[1,1,0,0,-5]];perimeter=orthogonalPerimeter;outlineConnect=0;targetShapes=umlLifeline;portConstraint=eastwest;newEdgeStyle={&quot;curved&quot;:0,&quot;rounded&quot;:0};" parent="CHvxEzsWI9L_6CAv82Uk-10" vertex="1">
          <mxGeometry x="45" y="510" width="10" height="90" as="geometry" />
        </mxCell>
        <mxCell id="rPxVZgnXgTAf76An14d8-22" value="" style="endArrow=classic;html=1;rounded=0;" parent="CHvxEzsWI9L_6CAv82Uk-10" source="rPxVZgnXgTAf76An14d8-15" target="rPxVZgnXgTAf76An14d8-15" edge="1">
          <mxGeometry width="50" height="50" relative="1" as="geometry">
            <mxPoint x="90" y="610" as="sourcePoint" />
            <mxPoint x="110" y="590" as="targetPoint" />
            <Array as="points">
              <mxPoint x="90" y="555" />
              <mxPoint x="90" y="570" />
              <mxPoint x="90" y="590" />
            </Array>
          </mxGeometry>
        </mxCell>
        <mxCell id="CHvxEzsWI9L_6CAv82Uk-12" value="PrepareOrder()" style="html=1;verticalAlign=bottom;endArrow=block;curved=0;rounded=0;" parent="1" source="CHvxEzsWI9L_6CAv82Uk-5" edge="1">
          <mxGeometry x="0.2826" width="80" relative="1" as="geometry">
            <mxPoint x="80" y="120" as="sourcePoint" />
            <mxPoint x="320" y="120" as="targetPoint" />
            <mxPoint as="offset" />
          </mxGeometry>
        </mxCell>
        <mxCell id="CHvxEzsWI9L_6CAv82Uk-13" value="order_id, route" style="html=1;verticalAlign=bottom;endArrow=open;dashed=1;endSize=8;curved=0;rounded=0;" parent="1" target="CHvxEzsWI9L_6CAv82Uk-5" edge="1">
          <mxGeometry x="-0.2826" relative="1" as="geometry">
            <mxPoint x="320" y="160" as="sourcePoint" />
            <mxPoint x="80" y="160" as="targetPoint" />
            <mxPoint as="offset" />
          </mxGeometry>
        </mxCell>
        <mxCell id="CHvxEzsWI9L_6CAv82Uk-14" value="PlaceOrder(order_id)" style="html=1;verticalAlign=bottom;endArrow=block;curved=0;rounded=0;" parent="1" edge="1">
          <mxGeometry width="80" relative="1" as="geometry">
            <mxPoint x="160" y="250" as="sourcePoint" />
            <mxPoint x="320" y="250" as="targetPoint" />
            <mxPoint as="offset" />
          </mxGeometry>
        </mxCell>
        <mxCell id="CHvxEzsWI9L_6CAv82Uk-15" value="MessageQueue" style="shape=umlLifeline;perimeter=lifelinePerimeter;whiteSpace=wrap;html=1;container=1;dropTarget=0;collapsible=0;recursiveResize=0;outlineConnect=0;portConstraint=eastwest;newEdgeStyle={&quot;curved&quot;:0,&quot;rounded&quot;:0};" parent="1" vertex="1">
          <mxGeometry x="414" y="40" width="146" height="640" as="geometry" />
        </mxCell>
        <mxCell id="CHvxEzsWI9L_6CAv82Uk-27" value="GetDriverStatus()" style="html=1;verticalAlign=bottom;endArrow=block;curved=0;rounded=0;" parent="CHvxEzsWI9L_6CAv82Uk-15" target="CHvxEzsWI9L_6CAv82Uk-28" edge="1">
          <mxGeometry x="0.6817" width="80" relative="1" as="geometry">
            <mxPoint x="-254" y="410" as="sourcePoint" />
            <mxPoint x="211" y="410" as="targetPoint" />
            <mxPoint as="offset" />
          </mxGeometry>
        </mxCell>
        <mxCell id="CHvxEzsWI9L_6CAv82Uk-30" value="найден ли водитель, время прибытия машины&lt;br&gt;(поток событий, сообщения отправляются каждые N секунд)" style="html=1;verticalAlign=bottom;endArrow=open;dashed=1;endSize=8;curved=0;rounded=0;" parent="CHvxEzsWI9L_6CAv82Uk-15" source="CHvxEzsWI9L_6CAv82Uk-28" edge="1">
          <mxGeometry x="-0.0204" relative="1" as="geometry">
            <mxPoint x="211" y="440" as="sourcePoint" />
            <mxPoint x="-254" y="440" as="targetPoint" />
            <Array as="points">
              <mxPoint x="131" y="440" />
            </Array>
            <mxPoint as="offset" />
          </mxGeometry>
        </mxCell>
        <mxCell id="CHvxEzsWI9L_6CAv82Uk-23" value="" style="html=1;points=[[0,0,0,0,5],[0,1,0,0,-5],[1,0,0,0,5],[1,1,0,0,-5]];perimeter=orthogonalPerimeter;outlineConnect=0;targetShapes=umlLifeline;portConstraint=eastwest;newEdgeStyle={&quot;curved&quot;:0,&quot;rounded&quot;:0};" parent="CHvxEzsWI9L_6CAv82Uk-15" vertex="1">
          <mxGeometry x="68" y="210" width="10" height="150" as="geometry" />
        </mxCell>
        <mxCell id="rPxVZgnXgTAf76An14d8-17" value="" style="html=1;points=[[0,0,0,0,5],[0,1,0,0,-5],[1,0,0,0,5],[1,1,0,0,-5]];perimeter=orthogonalPerimeter;outlineConnect=0;targetShapes=umlLifeline;portConstraint=eastwest;newEdgeStyle={&quot;curved&quot;:0,&quot;rounded&quot;:0};" parent="CHvxEzsWI9L_6CAv82Uk-15" vertex="1">
          <mxGeometry x="68" y="495" width="10" height="50" as="geometry" />
        </mxCell>
        <mxCell id="CHvxEzsWI9L_6CAv82Uk-16" value="" style="html=1;verticalAlign=bottom;endArrow=open;dashed=1;endSize=8;curved=0;rounded=0;" parent="1" edge="1">
          <mxGeometry x="-0.2826" relative="1" as="geometry">
            <mxPoint x="320" y="380" as="sourcePoint" />
            <mxPoint x="159.5" y="380" as="targetPoint" />
            <mxPoint as="offset" />
            <Array as="points">
              <mxPoint x="240" y="380" />
            </Array>
          </mxGeometry>
        </mxCell>
        <mxCell id="CHvxEzsWI9L_6CAv82Uk-17" value="ORDER_PLACED" style="html=1;verticalAlign=bottom;endArrow=block;curved=0;rounded=0;" parent="1" source="CHvxEzsWI9L_6CAv82Uk-22" edge="1">
          <mxGeometry x="-0.1034" width="80" relative="1" as="geometry">
            <mxPoint x="340" y="270" as="sourcePoint" />
            <mxPoint x="480" y="270" as="targetPoint" />
            <mxPoint as="offset" />
          </mxGeometry>
        </mxCell>
        <mxCell id="CHvxEzsWI9L_6CAv82Uk-18" value="CarLocatorService" style="shape=umlLifeline;perimeter=lifelinePerimeter;whiteSpace=wrap;html=1;container=1;dropTarget=0;collapsible=0;recursiveResize=0;outlineConnect=0;portConstraint=eastwest;newEdgeStyle={&quot;curved&quot;:0,&quot;rounded&quot;:0};" parent="1" vertex="1">
          <mxGeometry x="600" y="40" width="120" height="640" as="geometry" />
        </mxCell>
        <mxCell id="CHvxEzsWI9L_6CAv82Uk-25" value="" style="html=1;points=[[0,0,0,0,5],[0,1,0,0,-5],[1,0,0,0,5],[1,1,0,0,-5]];perimeter=orthogonalPerimeter;outlineConnect=0;targetShapes=umlLifeline;portConstraint=eastwest;newEdgeStyle={&quot;curved&quot;:0,&quot;rounded&quot;:0};" parent="CHvxEzsWI9L_6CAv82Uk-18" vertex="1">
          <mxGeometry x="55" y="240" width="10" height="60" as="geometry" />
        </mxCell>
        <mxCell id="CHvxEzsWI9L_6CAv82Uk-28" value="" style="html=1;points=[[0,0,0,0,5],[0,1,0,0,-5],[1,0,0,0,5],[1,1,0,0,-5]];perimeter=orthogonalPerimeter;outlineConnect=0;targetShapes=umlLifeline;portConstraint=eastwest;newEdgeStyle={&quot;curved&quot;:0,&quot;rounded&quot;:0};" parent="CHvxEzsWI9L_6CAv82Uk-18" vertex="1">
          <mxGeometry x="55" y="390" width="10" height="60" as="geometry" />
        </mxCell>
        <mxCell id="rPxVZgnXgTAf76An14d8-1" value="PaymentService" style="shape=umlLifeline;perimeter=lifelinePerimeter;whiteSpace=wrap;html=1;container=1;dropTarget=0;collapsible=0;recursiveResize=0;outlineConnect=0;portConstraint=eastwest;newEdgeStyle={&quot;curved&quot;:0,&quot;rounded&quot;:0};" parent="1" vertex="1">
          <mxGeometry x="800" y="40" width="120" height="640" as="geometry" />
        </mxCell>
        <mxCell id="rPxVZgnXgTAf76An14d8-3" value="" style="html=1;points=[[0,0,0,0,5],[0,1,0,0,-5],[1,0,0,0,5],[1,1,0,0,-5]];perimeter=orthogonalPerimeter;outlineConnect=0;targetShapes=umlLifeline;portConstraint=eastwest;newEdgeStyle={&quot;curved&quot;:0,&quot;rounded&quot;:0};" parent="rPxVZgnXgTAf76An14d8-1" vertex="1">
          <mxGeometry x="55" y="320" width="10" height="200" as="geometry" />
        </mxCell>
        <mxCell id="rPxVZgnXgTAf76An14d8-8" value="ORDER_PLACED" style="html=1;verticalAlign=bottom;endArrow=block;curved=0;rounded=0;" parent="1" edge="1">
          <mxGeometry x="0.4972" width="80" relative="1" as="geometry">
            <mxPoint x="492" y="370" as="sourcePoint" />
            <mxPoint x="850" y="370" as="targetPoint" />
            <mxPoint as="offset" />
          </mxGeometry>
        </mxCell>
        <mxCell id="rPxVZgnXgTAf76An14d8-10" value="ORDER_PLACED" style="html=1;verticalAlign=bottom;endArrow=block;curved=0;rounded=0;exitX=0.8;exitY=0.667;exitDx=0;exitDy=0;exitPerimeter=0;" parent="1" edge="1">
          <mxGeometry x="-0.1034" width="80" relative="1" as="geometry">
            <mxPoint x="490" y="290.00000000000006" as="sourcePoint" />
            <mxPoint x="655" y="290.00000000000006" as="targetPoint" />
            <mxPoint as="offset" />
          </mxGeometry>
        </mxCell>
        <mxCell id="rPxVZgnXgTAf76An14d8-12" value="" style="html=1;verticalAlign=bottom;endArrow=block;curved=0;rounded=0;" parent="1" edge="1">
          <mxGeometry x="-0.1034" width="80" relative="1" as="geometry">
            <mxPoint x="670" y="300" as="sourcePoint" />
            <mxPoint x="670" y="320" as="targetPoint" />
            <mxPoint as="offset" />
            <Array as="points">
              <mxPoint x="700" y="300" />
              <mxPoint x="700" y="320" />
            </Array>
          </mxGeometry>
        </mxCell>
        <mxCell id="rPxVZgnXgTAf76An14d8-16" value="CARD_VALID" style="html=1;verticalAlign=bottom;endArrow=block;curved=0;rounded=0;" parent="1" source="rPxVZgnXgTAf76An14d8-3" edge="1">
          <mxGeometry x="-0.5" width="80" relative="1" as="geometry">
            <mxPoint x="850" y="550" as="sourcePoint" />
            <mxPoint x="490" y="550" as="targetPoint" />
            <mxPoint as="offset" />
          </mxGeometry>
        </mxCell>
        <mxCell id="rPxVZgnXgTAf76An14d8-18" value="CARD_VALID" style="html=1;verticalAlign=bottom;endArrow=block;curved=0;rounded=0;" parent="1" target="rPxVZgnXgTAf76An14d8-15" edge="1">
          <mxGeometry x="-0.0204" width="80" relative="1" as="geometry">
            <mxPoint x="482" y="570" as="sourcePoint" />
            <mxPoint x="340" y="570" as="targetPoint" />
            <mxPoint as="offset" />
          </mxGeometry>
        </mxCell>
        <mxCell id="rPxVZgnXgTAf76An14d8-19" value="Предложить заказ водителям" style="text;html=1;strokeColor=none;fillColor=none;align=center;verticalAlign=middle;whiteSpace=wrap;rounded=0;" parent="1" vertex="1">
          <mxGeometry x="710" y="295" width="60" height="30" as="geometry" />
        </mxCell>
        <mxCell id="rPxVZgnXgTAf76An14d8-20" value="Разрешить оплату картой" style="text;html=1;strokeColor=none;fillColor=none;align=center;verticalAlign=middle;whiteSpace=wrap;rounded=0;" parent="1" vertex="1">
          <mxGeometry x="380" y="600" width="60" height="30" as="geometry" />
        </mxCell>
      </root>
    </mxGraphModel>
  </diagram>
</mxfile>
